HIERARCHY
ROOT Hips
{
	OFFSET -3.958830 18.904000 13.208200
	CHANNELS 6 Xposition Yposition Zposition Zrotation Yrotation Xrotation 
	JOINT LHipJoint
	{
		OFFSET 0.000000 0.000000 0.000000
		CHANNELS 3 Zrotation Yrotation Xrotation
		JOINT LeftUpLeg
		{
			OFFSET 1.800000 -1.400000 0.085000
			CHANNELS 3 Zrotation Yrotation Xrotation
			JOINT LeftLeg
			{
				OFFSET 2.215000 -6.000000 0.000000
				CHANNELS 3 Zrotation Yrotation Xrotation
				JOINT LeftFoot
				{
					OFFSET 2.500000 -6.900000 0.000000
					CHANNELS 3 Zrotation Yrotation Xrotation
					JOINT LeftToeBase
					{
						OFFSET 0.200000 -0.500000 1.950000
						CHANNELS 3 Zrotation Yrotation Xrotation
						End Site
						{
							OFFSET 0.000000 0.000000 0.000000
						}
					}
				}
			}
		}
	}
	JOINT RHipJoint
	{
		OFFSET 0.000000 0.000000 0.000000
		CHANNELS 3 Zrotation Yrotation Xrotation
		JOINT RightUpLeg
		{
			OFFSET -1.800000 -1.400000 0.085000
			CHANNELS 3 Zrotation Yrotation Xrotation
			JOINT RightLeg
			{
				OFFSET -2.215000 -6.000000 0.000000
				CHANNELS 3 Zrotation Yrotation Xrotation
				JOINT RightFoot
				{
					OFFSET -2.500000 -6.900000 0.000000
					CHANNELS 3 Zrotation Yrotation Xrotation
					JOINT RightToeBase
					{
						OFFSET -0.200000 -0.500000 1.950000
						CHANNELS 3 Zrotation Yrotation Xrotation
						End Site
						{
							OFFSET 0.000000 0.000000 0.000000
						}
					}
				}
			}
		}
	}
	JOINT LowerBack
	{
		OFFSET 0.000000 0.000000 0.000000
		CHANNELS 3 Zrotation Yrotation Xrotation
		JOINT Spine
		{
			OFFSET -0.087000 1.940000 -0.288900
			CHANNELS 3 Zrotation Yrotation Xrotation
			JOINT Spine1
			{
				OFFSET 0.000000 1.950000 0.060000
				CHANNELS 3 Zrotation Yrotation Xrotation
				JOINT Neck
				{
					OFFSET 0.000000 0.000000 0.000000
					CHANNELS 3 Zrotation Yrotation Xrotation
					JOINT Neck1
					{
						OFFSET 0.000000 1.600000 0.340000
						CHANNELS 3 Zrotation Yrotation Xrotation
						JOINT Head
						{
							OFFSET 0.000000 1.667000 -0.240000
							CHANNELS 3 Zrotation Yrotation Xrotation
							End Site
							{
								OFFSET 0.000000 0.000000 0.000000
							}
						}
					}
				}
				JOINT LeftShoulder
				{
					OFFSET 0.000000 0.000000 0.000000
					CHANNELS 3 Zrotation Yrotation Xrotation
					JOINT LeftArm
					{
						OFFSET 2.700000 1.550000 -0.730000
						CHANNELS 3 Zrotation Yrotation Xrotation
						JOINT LeftForeArm
						{
							OFFSET 5.450000 0.000000 0.000000
							CHANNELS 3 Zrotation Yrotation Xrotation
							JOINT LeftHand
							{
								OFFSET 3.450000 0.000000 0.000000
								CHANNELS 3 Zrotation Yrotation Xrotation
								JOINT LeftHandIndex1
								{
									OFFSET 0.750000 0.000000 0.000000
									CHANNELS 3 Zrotation Yrotation Xrotation
									End Site
									{
										OFFSET 0.000000 0.000000 0.000000
									}
								}
							}
						}
					}
				}
				JOINT RightShoulder
				{
					OFFSET 0.000000 0.000000 0.000000
					CHANNELS 3 Zrotation Yrotation Xrotation
					JOINT RightArm
					{
						OFFSET -2.700000 1.550000 -0.730000
						CHANNELS 3 Zrotation Yrotation Xrotation
						JOINT RightForeArm
						{
							OFFSET -5.450000 0.000000 0.000000
							CHANNELS 3 Zrotation Yrotation Xrotation
							JOINT RightHand
							{
								OFFSET -3.450000 0.000000 0.000000
								CHANNELS 3 Zrotation Yrotation Xrotation
								JOINT RightHandIndex1
								{
									OFFSET -0.750000 0.000000 0.000000
									CHANNELS 3 Zrotation Yrotation Xrotation
									End Site
									{
										OFFSET 0.000000 0.000000 0.000000
									}
								}
							}
						}
					}
				}
			}
		}
	}
}
MOTION
Frames: 10
Frame Time: 0.016667
-2.491340 17.548120 -5.443430 -5.196812 -16.474557 -1.121320 -15.284895 10.767583 5.648955 20.903812 -4.349173 -36.478248 -30.117335 24.937283 42.879938 1.302795 12.462060 0.405636 0.217250 0.051260 -0.034040 18.508335 -8.838794 3.302708 -14.030760 9.024653 -30.520172 20.259613 -15.495065 39.384530 -1.448462 -7.457801 1.482269 -0.172080 0.489140 0.790580 -3.955441 -1.349273 -9.312433 17.569192 -3.623831 35.293990 -9.207911 3.465429 0.684766 3.716274 -5.272302 -9.755759 -11.426906 4.438166 35.281024 -2.476040 1.768810 -29.289650 -16.944649 -3.165951 1.437890 -35.559531 3.398191 -10.509681 -14.810834 -43.556801 2.615711 -3.552948 3.029177 0.945970 -0.004570 0.587430 0.418910 8.731043 8.767058 6.673800 43.581863 -1.478584 -14.829034 37.036645 54.696213 13.429748 2.103713 -1.405704 -0.050880 0.336520 0.141420 0.190370 
-2.500720 17.448230 -5.467740 -4.991236 -16.208666 -2.279045 -15.330802 10.646343 5.712210 21.595917 -4.410064 -36.323161 -31.789707 26.345534 43.635121 1.381587 12.837622 0.288302 0.244050 0.080640 0.000820 18.493594 -8.614739 3.401991 -16.205855 9.175896 -30.981938 22.762767 -17.140787 40.398519 -1.608582 -8.008681 1.289970 -0.152580 0.449550 0.786380 -3.892116 -1.498267 -9.420469 17.176974 -4.269349 38.056519 -9.400473 3.102837 0.133872 3.920081 -5.441107 -9.576140 -11.631691 4.705323 35.077451 -2.818680 1.938780 -32.517710 -17.325796 -3.099980 1.258440 -34.314648 3.976178 -10.635535 -13.471367 -44.579411 2.338504 -3.517022 3.000845 1.002370 -0.044960 0.625860 0.403780 8.719665 8.873027 6.432637 42.603072 -0.718013 -14.738232 35.774397 55.511431 13.378849 2.084589 -1.364541 -0.060080 0.360290 0.144010 0.167990 
-2.515760 17.280670 -5.490750 -4.479455 -15.876793 -3.495503 -15.392033 10.454862 5.769478 22.192534 -4.526782 -36.447790 -33.828597 28.148032 44.505749 1.494141 13.271707 0.171463 0.281840 0.111670 0.043810 18.481417 -8.268221 3.610435 -19.705857 9.268315 -31.986889 26.852063 -19.724063 41.458766 -1.837787 -8.817153 1.027841 -0.132350 0.415670 0.784170 -3.821892 -1.701805 -9.584013 16.473131 -4.816861 40.784442 -9.427906 2.618655 -0.260102 4.065424 -5.618937 -9.570099 -11.917697 5.061422 35.043176 -2.850320 1.963150 -35.096010 -17.691303 -3.489000 1.375386 -32.848937 5.027048 -10.701425 -10.701878 -44.805507 1.517208 -3.470344 2.966721 1.057300 -0.083610 0.661280 0.400450 8.859889 9.461372 6.287678 41.207875 0.080629 -14.762526 33.661545 56.884960 13.095816 2.058740 -1.335222 -0.068510 0.381110 0.133020 0.149040 
-2.541170 17.088910 -5.508520 -4.327850 -16.026128 -4.969626 -15.464378 10.295398 5.844325 23.431025 -4.265769 -36.369781 -35.724291 30.248563 45.625114 1.640922 13.696682 0.043917 0.345260 0.192230 0.087180 18.459546 -7.915825 3.781657 -22.549922 9.413379 -32.210865 31.161590 -22.239011 41.999960 -2.070193 -9.515264 0.804173 -0.097090 0.353400 0.784420 -3.728690 -1.966825 -9.738507 15.911179 -5.242174 43.684621 -9.040718 2.303014 -0.444703 4.122804 -6.130279 -9.540380 -12.981882 5.391106 35.252181 -2.633070 1.619120 -37.381320 -18.569620 -3.953710 1.464020 -31.259906 5.939953 -10.671632 -8.636863 -44.953022 0.935344 -3.401307 2.982973 1.081320 -0.136140 0.708300 0.400930 9.673335 10.439030 6.166441 38.353254 0.687027 -14.713047 31.569855 58.517390 12.891045 2.050977 -1.335180 -0.037290 0.372070 0.101020 0.149570 
-2.553130 16.899910 -5.511650 -4.370282 -15.975197 -6.744999 -15.532668 10.222214 5.876580 24.561473 -4.046509 -35.788723 -36.955072 32.192260 47.051706 1.763468 14.084762 -0.068830 0.391580 0.237330 0.136540 18.425541 -7.594643 3.934260 -25.280485 9.423300 -31.731921 35.853320 -25.004568 42.263692 -2.296204 -10.175369 0.607323 -0.074830 0.292400 0.773760 -3.608458 -2.317676 -9.873943 15.897062 -5.811017 46.646483 -8.826555 2.047450 -0.853830 4.501349 -6.588638 -9.668104 -14.099249 5.428425 35.993253 -3.105240 1.014110 -38.600060 -19.957536 -4.695927 1.571856 -29.572283 7.040785 -10.713150 -8.067895 -45.617987 0.838921 -3.334570 3.003612 1.106310 -0.182400 0.738730 0.391960 10.353404 11.778512 6.305835 35.870151 0.915591 -14.906774 28.256121 59.338793 11.790298 2.037172 -1.323390 -0.023300 0.361130 0.073950 0.136330 
-2.552720 16.730550 -5.518350 -4.514861 -16.389286 -8.108642 -15.613428 10.190747 5.941120 25.758453 -3.666492 -35.527916 -37.928059 34.016118 48.375405 1.902964 14.402491 -0.135510 0.419120 0.280030 0.155200 18.380644 -7.289550 4.033035 -27.226189 9.635200 -31.390643 39.423215 -27.018018 42.363256 -2.453946 -10.593728 0.508069 -0.060240 0.263310 0.752640 -3.459705 -2.719191 -9.987040 15.724994 -6.306124 49.615280 -8.582518 1.878350 -1.841811 4.948194 -7.312914 -9.977183 -15.554403 5.987138 35.991464 -3.219180 0.707660 -39.232690 -21.536564 -5.433973 1.821138 -28.610769 8.688428 -10.866722 -5.713468 -45.535821 0.117610 -3.271558 2.997870 1.105780 -0.212770 0.759360 0.403270 11.144794 13.512208 6.568462 33.483781 1.045629 -15.156033 23.461808 59.288087 9.779368 2.026881 -1.292944 -0.009570 0.367800 0.039890 0.147990 
-2.537450 16.602250 -5.526910 -4.763610 -17.288083 -8.969469 -15.715195 10.237097 5.994592 26.786800 -3.077137 -35.349245 -38.353095 35.515450 49.575689 2.028537 14.620575 -0.189562 0.443980 0.326190 0.159290 18.312954 -6.969358 4.119887 -28.631340 10.118010 -31.404715 42.368471 -28.357661 42.163768 -2.570977 -10.837671 0.454448 -0.057100 0.224230 0.756720 -3.249921 -3.242638 -10.099764 15.241891 -6.486247 52.050158 -8.033286 1.857075 -2.676649 5.643682 -7.988677 -10.661488 -17.101445 6.849038 36.545559 -3.831440 0.607950 -39.632070 -23.433946 -6.758557 2.445949 -29.163632 10.578200 -11.162689 -0.707410 -43.246407 -1.484818 -3.210854 2.987869 1.096160 -0.241310 0.793610 0.414640 11.840602 16.089009 7.037735 31.252697 1.522748 -15.443372 17.909080 57.897714 7.198687 2.017411 -1.249387 0.031880 0.347770 0.012430 0.169010 
-2.517180 16.501050 -5.528840 -4.724350 -17.885586 -9.224081 -15.780177 10.222785 6.049958 27.207841 -2.841852 -35.842465 -38.198854 36.746252 51.127199 2.127592 14.852139 -0.254044 0.466400 0.361490 0.164980 18.279189 -6.723356 4.214302 -30.324551 10.272084 -31.794784 44.863587 -29.397607 41.664804 -2.652543 -10.966051 0.423760 -0.055530 0.188510 0.760110 -3.137960 -3.573109 -10.194580 15.080133 -6.880638 52.918294 -7.935350 1.486835 -2.981658 6.227113 -8.802734 -11.440782 -19.127600 8.178317 37.646688 -4.239430 0.563560 -40.218990 -25.001401 -8.056255 3.162972 -30.606427 12.357849 -11.726014 3.271531 -41.565227 -2.717585 -3.162774 2.976003 1.097320 -0.273360 0.824730 0.414900 12.409841 18.547624 7.395910 30.964164 3.161962 -15.545341 10.768040 54.584363 3.880365 2.003149 -1.153838 0.068500 0.342620 0.005570 0.180700 
-2.493190 16.463750 -5.532470 -4.648741 -18.505250 -9.439330 -15.798069 10.283801 6.028076 26.984767 -2.783919 -35.733359 -37.588167 36.978190 51.957875 2.168502 14.895375 -0.285421 0.488500 0.397050 0.172200 18.258747 -6.631669 4.280122 -31.282589 10.419119 -31.861108 46.223568 -29.513232 40.957366 -2.687105 -10.896598 0.434860 -0.057900 0.136440 0.744690 -3.091299 -3.773502 -10.234388 15.054009 -7.426910 52.683935 -7.879193 0.961534 -2.103323 6.683247 -9.512595 -13.189218 -22.034973 9.633419 41.039647 -3.379500 -0.046010 -40.785250 -25.204667 -10.766507 4.728535 -34.608064 13.451577 -12.330412 7.969026 -36.762592 -3.856676 -3.098937 2.904470 1.123740 -0.336820 0.871990 0.406360 12.051595 22.320157 8.340334 33.023481 4.757043 -16.394414 1.575800 50.424446 -0.077889 1.980706 -1.020221 0.102480 0.353530 0.002310 0.191860 
-2.476030 16.459720 -5.537050 -4.399585 -18.836343 -8.994050 -15.818960 10.316003 6.017603 26.369798 -2.887046 -36.331374 -36.928384 36.825903 52.443285 2.163211 14.895816 -0.310315 0.523370 0.446210 0.180900 18.239076 -6.549493 4.356336 -32.057039 10.454281 -32.406413 47.104775 -29.217074 40.082269 -2.698440 -10.776397 0.462933 -0.042170 0.104220 0.739020 -3.035061 -3.935459 -10.277306 14.620766 -7.304135 51.377916 -7.164616 0.797176 -1.106631 6.736986 -9.640809 -14.767519 -23.689893 10.920179 44.176367 -2.314470 -0.150660 -40.725680 -24.987558 -13.523175 6.135711 -38.317707 13.171699 -11.839072 9.422503 -30.084839 -3.703912 -3.084869 2.849836 1.153100 -0.375980 0.913750 0.412750 12.087272 25.568905 9.171399 34.842909 6.214018 -16.419883 -5.609695 45.253885 -2.639792 1.972387 -0.935339 0.124780 0.368030 -0.006220 0.199260 
